<?xml version="1.0" encoding="iso-8859-1"?>
<!-- Generator: Adobe Illustrator 19.0.0, SVG Export Plug-In . SVG Version: 6.00 Build 0)  -->
<svg version="1.1" id="Layer_1" xmlns="http://www.w3.org/2000/svg" xmlns:xlink="http://www.w3.org/1999/xlink" x="0px" y="0px"
	 viewBox="0 0 491.52 491.52" style="enable-background:new 0 0 491.52 491.52;" xml:space="preserve">
<circle style="fill:#45B39C;" cx="245.76" cy="245.76" r="245.76"/>
<path style="opacity:0.1;enable-background:new    ;" d="M385.536,232.909c-0.564-0.563-1.331-0.87-2.202-0.87h-8.653
	l-23.654-23.654l-1.126-1.127c-1.024-0.819-2.304-1.28-3.636-1.28H240.691l-27.904-27.904
	c-9.063-10.393-22.477-16.947-37.376-16.947c-27.443,0-49.664,22.272-49.664,49.715c0,16.538,8.038,31.13,20.429,40.141
	l-24.525,2.611c-1.331,0.154-2.56,0.819-3.43,1.843l-4.967,5.888h-1.076c-2.867,0-5.171,2.304-5.171,5.171v13.773
	c-1.229,0.717-2.048,1.997-2.048,3.43v13.107c0,0,0.103,2.56,2.099,4.096v0.051L293.035,486.93
	c86.664-16.893,156.991-79.313,185.16-161.362l-92.454-92.454L385.536,232.909z"/>
<ellipse style="fill:#FCD462;" cx="175.411" cy="210.842" rx="49.705" ry="49.736"/>
<ellipse style="fill:#F6C358;" cx="175.411" cy="210.842" rx="41.411" ry="41.441"/>
<path style="fill:#DC8744;" d="M173.726,243.096v-5.679c-7.106-0.725-13.484-3.552-19.127-8.478l5.676-6.768
	c4.353,3.786,8.833,6.04,13.452,6.768v-15.095c-5.859-1.399-10.149-3.242-12.87-5.524s-4.081-5.667-4.081-10.153
	c0-4.486,1.563-8.155,4.701-11.011c3.138-2.852,7.219-4.407,12.25-4.666v-3.891h4.973v3.967c5.701,0.418,11.092,2.362,16.173,5.838
	l-5.056,7.158c-3.423-2.438-7.125-3.941-11.117-4.514v14.626h0.234c5.96,1.402,10.339,3.296,13.136,5.679
	c2.803,2.387,4.201,5.85,4.201,10.387c0,4.54-1.607,8.237-4.821,11.087c-3.214,2.856-7.46,4.41-12.75,4.67v5.6H173.726z
	 M168.24,192.877c-1.322,1.165-1.98,2.618-1.98,4.356s0.519,3.112,1.557,4.122c1.031,1.013,3.005,1.985,5.91,2.919v-13.461
	C171.391,191.021,169.563,191.708,168.24,192.877z M184.609,226.991c1.449-1.19,2.177-2.694,2.177-4.511
	c0-1.814-0.569-3.254-1.708-4.318c-1.145-1.064-3.271-2.061-6.378-2.995v14.002C181.186,228.913,183.154,228.185,184.609,226.991z"
	/>
<path style="fill:#27A2DB;" d="M201.357,213.398l-29.926,34.938l1.887,1.815l9.701-1.815l23.88-37.488
	C204.768,210.847,202.743,211.779,201.357,213.398z"/>
<g>
	<polygon style="fill:#3A556A;" points="190.295,269.689 158.722,269.689 126.903,269.689 109.349,299.042 109.349,301.953 
		141.209,311.375 166.862,311.375 199.669,301.953 	"/>
	<polygon style="fill:#3A556A;" points="353.748,269.689 321.054,269.689 288.105,269.689 269.928,300.084 269.928,303.099 
		302.919,312.855 329.483,312.855 363.454,303.099 	"/>
</g>
<path style="fill:#2F4859;" d="M383.356,232.063h-14.295c-1.769,0-3.204,1.435-3.204,3.204v42.228c0,1.77,1.435,3.204,3.204,3.204
	h14.295c1.77,0,3.204-1.435,3.204-3.204v-42.228C386.56,233.497,385.125,232.063,383.356,232.063z"/>
<path style="fill:#64798A;" d="M370.982,301.058l-2.372-48.24c-0.04-0.817-0.216-1.621-0.519-2.38l-16.282-40.705
	c-0.91-2.276-3.115-3.769-5.567-3.769H212.328c-1.858,0-3.611,0.861-4.746,2.332l-30.439,39.436l-55.484,5.861
	c-1.347,0.142-2.586,0.802-3.456,1.84l-4.929,5.884h-1.115c-2.856,0-5.17,2.315-5.17,5.17v13.802
	c-1.204,0.678-2.028,1.953-2.028,3.433V296.8c0,0,0.182,4.369,4.389,5.153l10.479,0.003c1.998,0.001,3.869-0.982,5.003-2.627
	l13.412-19.459c2.052-2.977,5.443-4.756,9.067-4.756h20.382c3.876,0,7.466,2.033,9.45,5.351l11.285,18.875
	c1.303,2.178,3.642,3.526,6.18,3.559l83.375,1.098c2.458,0.032,4.769-1.173,6.148-3.208l14.183-20.919
	c2.052-2.977,5.443-4.756,9.067-4.756h20.383c3.876,0,7.466,2.033,9.45,5.351l10.852,20.631c1.248,2.373,3.695,3.872,6.375,3.908
	l1.8,0.024c1.163,0.045,2.232,0.057,3.218,0.042l0.051,0.001l0-0.002C370.831,304.886,370.982,301.058,370.982,301.058z"/>
<g>
	<path style="fill:#2F4859;" d="M281.997,299.042h-94.85c-1.667,0-3.018,1.351-3.018,3.018c0,1.667,1.351,3.018,3.018,3.018h94.85
		c1.667,0,3.018-1.351,3.018-3.018C285.015,300.393,283.664,299.042,281.997,299.042z"/>
	<circle style="fill:#2F4859;" cx="156.943" cy="304.589" r="25.805"/>
</g>
<g>
	<path style="fill:#3A556A;" d="M156.946,286.102c-10.211,0-18.489,8.278-18.489,18.488c0,10.211,8.278,18.489,18.489,18.489
		c10.211,0,18.488-8.278,18.488-18.489C175.434,294.38,167.157,286.102,156.946,286.102z M156.946,320.822
		c-8.964,0-16.231-7.267-16.231-16.231c0-8.964,7.267-16.231,16.231-16.231c8.964,0,16.231,7.267,16.231,16.231
		C173.177,313.555,165.91,320.822,156.946,320.822z"/>
	<circle style="fill:#3A556A;" cx="156.943" cy="304.589" r="3.656"/>
	<polygon style="fill:#3A556A;" points="154.207,286.654 156.244,295.282 159.685,303.453 157.648,294.824 	"/>
	<polygon style="fill:#3A556A;" points="159.685,286.654 157.648,295.282 154.207,303.453 156.244,294.824 	"/>
	<polygon style="fill:#3A556A;" points="154.207,305.728 156.244,314.357 159.685,322.527 157.648,313.899 	"/>
	<polygon style="fill:#3A556A;" points="159.685,305.728 157.648,314.357 154.207,322.527 156.244,313.899 	"/>
	<polygon style="fill:#3A556A;" points="174.883,301.852 166.254,303.888 158.083,307.329 166.712,305.293 	"/>
	<polygon style="fill:#3A556A;" points="174.883,307.329 166.254,305.293 158.083,301.852 166.712,303.888 	"/>
	<polygon style="fill:#3A556A;" points="155.808,301.852 147.18,303.888 139.009,307.329 147.638,305.293 	"/>
	<polygon style="fill:#3A556A;" points="155.808,307.329 147.18,305.293 139.009,301.852 147.638,303.888 	"/>
	<polygon style="fill:#3A556A;" points="167.693,289.971 163.031,297.512 159.687,305.723 164.348,298.181 	"/>
	<polygon style="fill:#3A556A;" points="171.566,293.844 164.024,298.505 155.814,301.85 163.355,297.188 	"/>
	<polygon style="fill:#3A556A;" points="154.205,303.458 149.543,311 146.199,319.211 150.861,311.669 	"/>
	<polygon style="fill:#3A556A;" points="158.078,307.332 150.537,311.993 142.326,315.337 149.867,310.676 	"/>
	<polygon style="fill:#3A556A;" points="171.566,315.337 164.024,310.676 155.814,307.332 163.355,311.993 	"/>
	<polygon style="fill:#3A556A;" points="167.693,319.211 163.031,311.669 159.687,303.458 164.348,311 	"/>
	<polygon style="fill:#3A556A;" points="158.078,301.85 150.537,297.188 142.326,293.844 149.867,298.505 	"/>
	<polygon style="fill:#3A556A;" points="154.205,305.723 149.543,298.181 146.199,289.971 150.861,297.512 	"/>
</g>
<circle style="fill:#2F4859;" cx="317.025" cy="304.589" r="25.805"/>
<g>
	<path style="fill:#3A556A;" d="M317.028,286.102c-10.211,0-18.489,8.278-18.489,18.488c0,10.211,8.278,18.489,18.489,18.489
		c10.211,0,18.488-8.278,18.488-18.489C335.516,294.38,327.239,286.102,317.028,286.102z M317.028,320.822
		c-8.964,0-16.231-7.267-16.231-16.231c0-8.964,7.267-16.231,16.231-16.231c8.964,0,16.231,7.267,16.231,16.231
		C333.259,313.555,325.992,320.822,317.028,320.822z"/>
	<circle style="fill:#3A556A;" cx="317.025" cy="304.589" r="3.656"/>
	<polygon style="fill:#3A556A;" points="314.289,286.654 316.326,295.282 319.767,303.453 317.73,294.824 	"/>
	<polygon style="fill:#3A556A;" points="319.767,286.654 317.73,295.282 314.289,303.453 316.326,294.824 	"/>
	<polygon style="fill:#3A556A;" points="314.289,305.728 316.326,314.357 319.767,322.527 317.73,313.899 	"/>
	<polygon style="fill:#3A556A;" points="319.767,305.728 317.73,314.357 314.289,322.527 316.326,313.899 	"/>
	<polygon style="fill:#3A556A;" points="334.965,301.852 326.336,303.888 318.165,307.329 326.794,305.293 	"/>
	<polygon style="fill:#3A556A;" points="334.965,307.329 326.336,305.293 318.165,301.852 326.794,303.888 	"/>
	<polygon style="fill:#3A556A;" points="315.89,301.852 307.262,303.888 299.091,307.329 307.72,305.293 	"/>
	<polygon style="fill:#3A556A;" points="315.89,307.329 307.262,305.293 299.091,301.852 307.72,303.888 	"/>
	<polygon style="fill:#3A556A;" points="327.775,289.971 323.113,297.512 319.769,305.723 324.43,298.181 	"/>
	<polygon style="fill:#3A556A;" points="331.648,293.844 324.106,298.505 315.896,301.85 323.437,297.188 	"/>
	<polygon style="fill:#3A556A;" points="314.287,303.458 309.625,311 306.281,319.211 310.943,311.669 	"/>
	<polygon style="fill:#3A556A;" points="318.16,307.332 310.619,311.993 302.408,315.337 309.949,310.676 	"/>
	<polygon style="fill:#3A556A;" points="331.648,315.337 324.106,310.676 315.896,307.332 323.437,311.993 	"/>
	<polygon style="fill:#3A556A;" points="327.775,319.211 323.113,311.669 319.769,303.458 324.43,311 	"/>
	<polygon style="fill:#3A556A;" points="318.16,301.85 310.619,297.188 302.408,293.844 309.949,298.505 	"/>
	<polygon style="fill:#3A556A;" points="314.287,305.723 309.625,298.181 306.281,289.971 310.943,297.512 	"/>
</g>
<g>
	<path style="fill:#27A2DB;" d="M308.523,247.047h51.835l-14.046-35.116c-0.012-0.029-0.04-0.048-0.071-0.048l-37.717,0.008V247.047
		z"/>
	<polygon style="fill:#27A2DB;" points="248.043,211.905 212.268,211.913 185.149,247.047 248.043,247.047 	"/>
	<rect x="252.518" y="211.917" style="fill:#27A2DB;" width="51.507" height="35.149"/>
</g>
<g>
	<polygon style="fill:#39B7E2;" points="270.63,247.047 273.274,247.047 289.663,211.893 287.014,211.904 	"/>
	<polygon style="fill:#39B7E2;" points="266.903,247.047 268.225,247.047 284.614,211.893 283.287,211.904 	"/>
	<polygon style="fill:#39B7E2;" points="319.866,247.047 322.51,247.047 338.899,211.893 336.25,211.904 	"/>
	<polygon style="fill:#39B7E2;" points="316.139,247.047 317.461,247.047 333.85,211.893 332.523,211.904 	"/>
	<polygon style="fill:#39B7E2;" points="214.267,247.047 216.911,247.047 233.3,211.893 230.651,211.904 	"/>
	<polygon style="fill:#39B7E2;" points="210.54,247.047 211.862,247.047 228.251,211.893 226.924,211.904 	"/>
</g>
<g>
	<rect x="122.163" y="256.666" style="fill:#E56353;" width="8.965" height="3.067"/>
	<path style="fill:#E56353;" d="M369.675,274.494h-4.658c-1.198,0-2.169,0.971-2.169,2.169v6.138h7.235L369.675,274.494z"/>
</g>
<path style="fill:#FCD462;" d="M362.848,282.801v12.091c0,1.198,0.971,2.169,2.169,2.169h5.767l-0.701-14.26H362.848z"/>
<g>
</g>
<g>
</g>
<g>
</g>
<g>
</g>
<g>
</g>
<g>
</g>
<g>
</g>
<g>
</g>
<g>
</g>
<g>
</g>
<g>
</g>
<g>
</g>
<g>
</g>
<g>
</g>
<g>
</g>
</svg>
